# xmcd
#
# Track frame offsets: 
#        150
#        13592
#        31859
#        45957
#        61582
#        72456
#        83182
#        97135
#        111538
#        121847
#        133815
#        148626
#
# Disc length: 2158 seconds
#
# Revision: 4
# Processed by: cddbd v1.4PL0 Copyright (c) Steve Scherf et al.
# Submitted via: ExactAudioCopy v0.90b4
#
DISCID=a3086c0c
DTITLE=Jeff Foxworthy - Crank It Up
DYEAR=1900
DGENRE=
TTITLE0=Redneck Stomp
TTITLE1=S.I.N.G.L.E.
TTITLE2=Party All Night
TTITLE3=Redneck Games
TTITLE4=Big O' Moon
TTITLE5=12 Days of Christmas
TTITLE6=Pure Bred Redneck
TTITLE7=Let Me Drive
TTITLE8=Copenhagen
TTITLE9=Howdy From Maui
TTITLE10='Twas the Night After Christmas
TTITLE11=Still More You Might Be A Redneck If...
EXTD=
EXTT0=
EXTT1=
EXTT2=
EXTT3=
EXTT4=
EXTT5=
EXTT6=
EXTT7=
EXTT8=
EXTT9=
EXTT10=
EXTT11=
PLAYORDER=
